# MagicaVoxel @ Ephtracy

# group
o 

# material
mtllib ZzangGu-2.mtl
usemtl palette

# normals
vn -1 0 0
vn 1 0 0
vn 0 0 1
vn 0 0 -1
vn 0 -1 0
vn 0 1 0

# texcoords
vt 0.0957031 0.5
vt 0.580078 0.5
vt 0.720703 0.5

# verts
v 6.7 0 6.5
v 6.7 0 6.2
v 6.7 0.2 6.5
v 6.7 0.2 6.4
v 6.7 0.3 6.5
v 6.7 0.3 6.4
v 6.7 0.4 6.5
v 6.7 0.4 6.2
v 7 0 6.5
v 7 0 6.4
v 7 0 6.2
v 7 0.1 6.5
v 7 0.1 6.4
v 7 0.4 6.5
v 7 0.4 6.2
v 6.7 0 6.5
v 6.7 0.2 6.5
v 6.7 0.3 6.5
v 6.7 0.4 6.5
v 6.8 0.1 6.5
v 6.8 0.2 6.5
v 6.8 0.3 6.5
v 6.9 0 6.5
v 6.9 0.1 6.5
v 6.9 0.2 6.5
v 6.9 0.4 6.5
v 7 0 6.5
v 7 0.1 6.5
v 7 0.4 6.5
v 6.7 0 6.2
v 6.7 0.4 6.2
v 6.9 0 6.2
v 6.9 0.4 6.2
v 7 0 6.2
v 7 0.4 6.2
v 6.7 0 6.5
v 6.9 0 6.5
v 7 0 6.5
v 6.9 0 6.4
v 7 0 6.4
v 6.7 0 6.2
v 6.9 0 6.2
v 7 0 6.2
v 6.7 0.4 6.5
v 6.9 0.4 6.5
v 7 0.4 6.5
v 6.7 0.4 6.2
v 6.9 0.4 6.2
v 7 0.4 6.2

# faces
f 3/2/1 2/2/1 1/2/1
f 4/2/1 2/2/1 3/2/1
f 5/1/1 4/1/1 3/1/1
f 6/2/1 2/2/1 4/2/1
f 6/1/1 4/1/1 5/1/1
f 7/2/1 6/2/1 5/2/1
f 8/2/1 2/2/1 6/2/1
f 8/2/1 6/2/1 7/2/1
f 9/1/2 10/1/2 12/1/2
f 10/3/2 11/3/2 13/3/2
f 12/1/2 10/1/2 13/1/2
f 12/3/2 13/3/2 14/3/2
f 13/3/2 11/3/2 15/3/2
f 14/3/2 13/3/2 15/3/2
f 20/2/3 17/2/3 16/2/3
f 21/1/3 18/1/3 17/1/3
f 21/2/3 17/2/3 20/2/3
f 22/2/3 19/2/3 18/2/3
f 22/1/3 18/1/3 21/1/3
f 23/2/3 20/2/3 16/2/3
f 24/1/3 21/1/3 20/1/3
f 24/2/3 20/2/3 23/2/3
f 25/2/3 22/2/3 21/2/3
f 25/1/3 21/1/3 24/1/3
f 26/2/3 19/2/3 22/2/3
f 26/2/3 22/2/3 25/2/3
f 27/1/3 24/1/3 23/1/3
f 28/3/3 25/3/3 24/3/3
f 28/1/3 24/1/3 27/1/3
f 28/3/3 26/3/3 25/3/3
f 29/3/3 26/3/3 28/3/3
f 30/2/4 31/2/4 32/2/4
f 32/2/4 31/2/4 33/2/4
f 32/3/4 33/3/4 34/3/4
f 34/3/4 33/3/4 35/3/4
f 39/2/5 37/2/5 36/2/5
f 39/1/5 38/1/5 37/1/5
f 40/1/5 38/1/5 39/1/5
f 41/2/5 39/2/5 36/2/5
f 42/3/5 40/3/5 39/3/5
f 42/2/5 39/2/5 41/2/5
f 43/3/5 40/3/5 42/3/5
f 44/2/6 45/2/6 47/2/6
f 45/3/6 46/3/6 48/3/6
f 47/2/6 45/2/6 48/2/6
f 48/3/6 46/3/6 49/3/6
